<svg width="255" height="95" viewBox="0 0 255 95" fill="none" xmlns="http://www.w3.org/2000/svg">
<circle cx="47.1626" cy="47.1626" r="47.1626" fill="#E3DCEF"/>
<g filter="url(#filter0_i_32_40)">
<path d="M82.984 44.8608L64.9927 45.2336C64.5005 39.1489 60.7223 33.5792 54.6104 31.0006C48.4973 28.4224 41.6309 29.5055 36.5795 33.2475L24.7666 20.3065C24.2622 19.7564 23.4801 19.5369 22.7369 19.7365C21.9971 19.9375 21.4259 20.526 21.2595 21.2567L19.6548 28.3811L12.0617 30.8536C11.5122 31.0333 11.0621 31.4315 10.8223 31.9479C10.5823 32.4634 10.5771 33.0483 10.8101 33.5568L13.9952 40.575L9.54503 46.5004C9.08963 47.1093 9.01833 47.9078 9.36053 48.566C9.70303 49.2253 10.4004 49.6277 11.1648 49.6129L26.9731 49.2876C27.0586 47.0739 27.5745 44.8307 28.5766 42.6709C29.6526 40.3523 31.1789 38.3673 33.0038 36.7597C32.2086 37.7935 31.5139 38.9199 30.9454 40.1412C26.8486 48.9718 30.7989 59.1989 39.7676 62.9815C45.7188 65.4904 52.381 64.5332 57.3897 61.0268L69.3853 74.1673C69.8884 74.7177 70.6708 74.9385 71.4131 74.7366C72.153 74.5356 72.7259 73.9477 72.8883 73.2173L74.498 66.0922L82.0872 63.6201C82.6379 63.44 83.0882 63.0417 83.3283 62.5263C83.5673 62.0115 83.5734 61.426 83.3433 60.9176L80.1554 53.8993L84.6051 47.9728C85.0607 47.365 85.1328 46.565 84.7913 45.9079C84.4468 45.2506 83.751 44.845 82.984 44.8608Z" fill="#987CC2"/>
</g>
<path d="M118.032 65.0082C115.422 65.0082 113.264 64.5905 111.558 63.7552C109.887 62.885 108.652 61.7712 107.851 60.4138C107.086 59.0563 106.703 57.6815 106.703 56.2892C106.703 55.0362 106.981 53.8702 107.538 52.7912C108.13 51.6774 108.948 50.7898 109.992 50.1285C111.036 49.4324 112.289 49.0843 113.751 49.0843C114.9 49.0843 115.926 49.3105 116.831 49.763C117.771 50.1807 118.519 50.7724 119.076 51.5381C119.633 52.2691 119.912 53.1218 119.912 54.0964C119.912 54.2704 119.894 54.4619 119.859 54.6707C119.859 54.8796 119.825 55.0884 119.755 55.2972C119.477 55.1928 119.198 55.1232 118.92 55.0884C118.676 55.0188 118.432 54.984 118.189 54.984C117.353 54.984 116.692 55.2798 116.205 55.8715C115.752 56.4632 115.526 57.1594 115.526 57.9599C115.526 58.8301 115.839 59.6306 116.466 60.3616C117.092 61.0925 118.084 61.458 119.442 61.458C120.208 61.458 120.921 61.3013 121.582 60.9881C122.278 60.6748 122.853 60.1527 123.305 59.4218C123.758 58.6909 123.984 57.7511 123.984 56.6025C123.984 55.245 123.619 54.0616 122.888 53.0522C122.191 52.0428 121.287 51.1205 120.173 50.2851C119.094 49.415 117.98 48.5448 116.831 47.6746C115.857 46.9437 114.952 46.1606 114.116 45.3252C113.281 44.4899 112.602 43.5501 112.08 42.5059C111.558 41.4269 111.297 40.2087 111.297 38.8512C111.297 37.1457 111.732 35.649 112.602 34.3612C113.472 33.0734 114.621 31.9944 116.048 31.1242C117.51 30.2541 119.129 29.5927 120.904 29.1402C122.679 28.6878 124.471 28.4615 126.281 28.4615C128.23 28.4615 130.023 28.653 131.659 29.0358C133.295 29.3839 134.617 30.0104 135.627 30.9154C136.636 31.7855 137.141 32.9689 137.141 34.4656C137.141 35.7535 136.828 36.8151 136.201 37.6504C135.575 38.4858 134.774 39.1123 133.799 39.5299C132.86 39.9128 131.868 40.1043 130.823 40.1043C130.301 40.1043 129.779 40.0694 129.257 39.9998C128.735 39.8954 128.248 39.7562 127.795 39.5822C128.074 38.886 128.283 38.2247 128.422 37.5982C128.561 36.9369 128.631 36.3104 128.631 35.7187C128.631 34.57 128.387 33.6303 127.9 32.8993C127.447 32.1336 126.56 31.7507 125.237 31.7507C124.297 31.7507 123.479 32.0814 122.783 32.7427C122.087 33.404 121.739 34.309 121.739 35.4576C121.739 36.5018 122.052 37.4242 122.679 38.2247C123.34 38.9905 124.158 39.7214 125.133 40.4175C126.142 41.1136 127.204 41.8446 128.317 42.6103C129.362 43.3761 130.354 44.2114 131.293 45.1164C132.268 46.0213 133.051 47.0829 133.643 48.3012C134.234 49.4846 134.53 50.9116 134.53 52.5823C134.53 54.6359 134.026 56.4458 133.016 58.0121C132.042 59.5436 130.736 60.8488 129.101 61.9278C127.499 62.972 125.724 63.7378 123.775 64.2251C121.861 64.7472 119.946 65.0082 118.032 65.0082ZM143.984 65.0604C143.636 65.0604 143.288 65.0604 142.94 65.0604C142.627 65.0604 142.279 65.043 141.896 65.0082C141.826 62.1541 141.739 59.4218 141.635 56.8113C141.53 54.2008 141.391 51.7818 141.217 49.5542C141.043 47.2918 140.817 45.3078 140.539 43.6023C140.295 42.0012 140.034 40.8004 139.755 39.9998C139.477 39.1993 139.024 38.6076 138.398 38.2247C139.303 37.4938 140.243 36.9891 141.217 36.7106C142.192 36.4322 143.201 36.293 144.245 36.293C145.951 36.293 147.256 36.5888 148.161 37.1805C149.066 37.7374 149.71 38.5728 150.093 39.6866C150.476 40.7656 150.702 42.0708 150.772 43.6023C150.806 44.1244 150.824 44.8727 150.824 45.8473C150.859 46.8219 150.876 47.8313 150.876 48.8755C150.911 49.9197 150.928 50.8072 150.928 51.5381C150.928 52.5823 150.928 53.8006 150.928 55.1928C150.928 56.5503 150.911 58.1165 150.876 59.8917C151.885 58.8475 152.756 57.5771 153.486 56.0804C154.217 54.5837 154.827 52.9652 155.314 51.2249C155.801 49.4846 156.149 47.7617 156.358 46.0561C156.602 44.3158 156.723 42.7147 156.723 41.2529C156.723 40.7656 156.706 40.2783 156.671 39.791C156.636 39.2689 156.532 38.7468 156.358 38.2247C156.88 37.633 157.541 37.1631 158.342 36.8151C159.143 36.467 160.1 36.293 161.213 36.293C162.641 36.293 163.72 36.5888 164.45 37.1805C165.181 37.7722 165.686 38.6076 165.965 39.6866C166.278 40.7656 166.487 42.0534 166.591 43.5501C166.591 43.933 166.608 44.3506 166.643 44.8031C166.678 45.2208 166.695 45.7429 166.695 46.3694C166.73 46.9611 166.748 47.7094 166.748 48.6144C166.748 49.4846 166.748 50.5288 166.748 51.747C166.748 52.7912 166.748 53.992 166.748 55.3494C166.748 56.6721 166.73 58.1862 166.695 59.8917C167.705 58.8475 168.575 57.5771 169.306 56.0804C170.072 54.5837 170.681 52.9652 171.133 51.2249C171.621 49.4846 171.969 47.7617 172.177 46.0561C172.421 44.3158 172.543 42.7147 172.543 41.2529C172.543 40.7656 172.526 40.2783 172.491 39.791C172.456 39.2689 172.352 38.7468 172.177 38.2247C172.7 37.6678 173.361 37.2153 174.161 36.8673C174.962 36.4844 175.884 36.293 176.929 36.293C177.764 36.293 178.512 36.4322 179.174 36.7106C179.87 36.9891 180.427 37.459 180.844 38.1203C181.297 38.7468 181.523 39.5996 181.523 40.6786C181.523 41.6531 181.314 42.8192 180.896 44.1766C180.479 45.534 179.922 46.9611 179.226 48.4578C178.564 49.9545 177.834 51.4163 177.033 52.8434C176.232 54.2704 175.397 55.5409 174.527 56.6547C173.065 58.569 171.655 60.1527 170.298 61.4058C168.975 62.624 167.548 63.5289 166.017 64.1206C164.485 64.7124 162.71 65.0082 160.691 65.0082C160.448 65.0082 160.187 65.0082 159.908 65.0082C159.665 65.0082 159.404 64.9908 159.125 64.956C159.125 63.4593 159.125 61.8234 159.125 60.0483C159.125 58.2732 159.09 56.411 159.021 54.4619C157.628 57.316 156.184 59.5088 154.687 61.0403C153.191 62.5718 151.572 63.616 149.832 64.1729C148.091 64.7646 146.142 65.0604 143.984 65.0604ZM193.304 65.0082C191.146 65.0082 189.232 64.6253 187.561 63.8596C185.891 63.0939 184.568 61.9104 183.593 60.3094C182.654 58.7083 182.184 56.6373 182.184 54.0964C182.184 51.834 182.514 49.6412 183.176 47.518C183.837 45.3948 184.864 43.4979 186.256 41.8272C187.648 40.1217 189.406 38.7816 191.529 37.807C193.687 36.7976 196.246 36.293 199.204 36.293C200.736 36.293 202.163 36.467 203.485 36.8151C204.843 37.1631 205.939 37.8244 206.774 38.799C207.645 39.7388 208.08 41.0962 208.08 42.8714C208.08 44.5421 207.592 46.0213 206.618 47.3092C205.678 48.5622 204.216 49.5542 202.232 50.2851C200.283 51.0161 197.812 51.4685 194.818 51.6426C194.401 51.6774 193.966 51.6948 193.513 51.6948C193.061 51.6948 192.608 51.6948 192.156 51.6948C192.121 52.0776 192.086 52.4779 192.051 52.8956C192.017 53.2785 191.999 53.6091 191.999 53.8876C191.999 55.3494 192.312 56.4807 192.939 57.2812C193.6 58.0469 194.714 58.4298 196.28 58.4298C197.603 58.4298 198.943 58.1514 200.3 57.5945C201.693 57.0027 202.72 56.1848 203.381 55.1406C203.868 55.4191 204.199 55.7671 204.373 56.1848C204.582 56.6025 204.686 57.0898 204.686 57.6467C204.686 59.1433 204.147 60.4486 203.068 61.5624C201.989 62.6762 200.579 63.5289 198.839 64.1206C197.133 64.7124 195.288 65.0082 193.304 65.0082ZM192.469 49.4498C193.687 49.4498 194.766 49.2583 195.706 48.8755C196.646 48.4578 197.429 47.9183 198.055 47.257C198.717 46.5956 199.204 45.7951 199.517 44.8553C199.865 43.9156 200.039 42.8888 200.039 41.775C200.005 40.9396 199.848 40.2609 199.57 39.7388C199.326 39.2167 198.839 38.9556 198.108 38.9556C197.516 38.9556 196.942 39.1645 196.385 39.5822C195.828 39.965 195.306 40.5741 194.818 41.4095C194.331 42.2448 193.879 43.3412 193.461 44.6987C193.078 46.0213 192.748 47.605 192.469 49.4498ZM219.817 65.0082C217.659 65.0082 215.745 64.6253 214.074 63.8596C212.403 63.0939 211.081 61.9104 210.106 60.3094C209.166 58.7083 208.696 56.6373 208.696 54.0964C208.696 51.834 209.027 49.6412 209.688 47.518C210.35 45.3948 211.377 43.4979 212.769 41.8272C214.161 40.1217 215.919 38.7816 218.042 37.807C220.2 36.7976 222.758 36.293 225.717 36.293C227.248 36.293 228.675 36.467 229.998 36.8151C231.355 37.1631 232.452 37.8244 233.287 38.799C234.157 39.7388 234.592 41.0962 234.592 42.8714C234.592 44.5421 234.105 46.0213 233.131 47.3092C232.191 48.5622 230.729 49.5542 228.745 50.2851C226.796 51.0161 224.324 51.4685 221.331 51.6426C220.913 51.6774 220.478 51.6948 220.026 51.6948C219.573 51.6948 219.121 51.6948 218.668 51.6948C218.634 52.0776 218.599 52.4779 218.564 52.8956C218.529 53.2785 218.512 53.6091 218.512 53.8876C218.512 55.3494 218.825 56.4807 219.452 57.2812C220.113 58.0469 221.227 58.4298 222.793 58.4298C224.116 58.4298 225.456 58.1514 226.813 57.5945C228.205 57.0027 229.232 56.1848 229.894 55.1406C230.381 55.4191 230.711 55.7671 230.885 56.1848C231.094 56.6025 231.199 57.0898 231.199 57.6467C231.199 59.1433 230.659 60.4486 229.58 61.5624C228.501 62.6762 227.092 63.5289 225.351 64.1206C223.646 64.7124 221.801 65.0082 219.817 65.0082ZM218.982 49.4498C220.2 49.4498 221.279 49.2583 222.219 48.8755C223.158 48.4578 223.942 47.9183 224.568 47.257C225.229 46.5956 225.717 45.7951 226.03 44.8553C226.378 43.9156 226.552 42.8888 226.552 41.775C226.517 40.9396 226.361 40.2609 226.082 39.7388C225.839 39.2167 225.351 38.9556 224.62 38.9556C224.029 38.9556 223.454 39.1645 222.897 39.5822C222.341 39.965 221.818 40.5741 221.331 41.4095C220.844 42.2448 220.391 43.3412 219.974 44.6987C219.591 46.0213 219.26 47.605 218.982 49.4498ZM242.31 65.0082C240.604 65.0082 239.142 64.5557 237.924 63.6508C236.706 62.7458 236.097 61.4058 236.097 59.6306C236.097 58.9345 236.166 58.0643 236.305 57.0201C236.48 55.9412 236.671 54.7925 236.88 53.5743C237.089 52.3561 237.297 51.2075 237.506 50.1285C237.75 49.0147 237.924 48.1271 238.028 47.4658L239.542 39.6866H236.462L236.671 38.1203C238.759 37.4938 240.83 36.641 242.884 35.562C244.937 34.483 246.956 33.1778 248.94 31.6463H251.446L250.193 37.3371H254.266L253.796 39.6866H249.776L246.747 55.6627C246.678 56.1152 246.608 56.5677 246.539 57.0201C246.469 57.4378 246.434 57.8555 246.434 58.2732C246.434 59.561 246.747 60.379 247.374 60.727C248 61.0751 248.836 61.1273 249.88 60.8837C249.393 62.0323 248.731 62.9198 247.896 63.5463C247.061 64.1381 246.156 64.5209 245.181 64.695C244.241 64.9038 243.284 65.0082 242.31 65.0082Z" fill="#987CC2"/>
<defs>
<filter id="filter0_i_32_40" x="9.146" y="19.664" width="75.8589" height="55.8424" filterUnits="userSpaceOnUse" color-interpolation-filters="sRGB">
<feFlood flood-opacity="0" result="BackgroundImageFix"/>
<feBlend mode="normal" in="SourceGraphic" in2="BackgroundImageFix" result="shape"/>
<feColorMatrix in="SourceAlpha" type="matrix" values="0 0 0 0 0 0 0 0 0 0 0 0 0 0 0 0 0 0 127 0" result="hardAlpha"/>
<feOffset dy="1.74032"/>
<feGaussianBlur stdDeviation="0.348064"/>
<feComposite in2="hardAlpha" operator="arithmetic" k2="-1" k3="1"/>
<feColorMatrix type="matrix" values="0 0 0 0 0 0 0 0 0 0 0 0 0 0 0 0 0 0 0.25 0"/>
<feBlend mode="normal" in2="shape" result="effect1_innerShadow_32_40"/>
</filter>
</defs>
</svg>
