<svg width="95" height="95" viewBox="0 0 95 95" fill="none" xmlns="http://www.w3.org/2000/svg">
<circle cx="47.1626" cy="47.1626" r="47.1626" fill="#E3DCEF"/>
<g filter="url(#filter0_i_74_2)">
<path d="M82.984 44.8608L64.9927 45.2336C64.5005 39.1489 60.7223 33.5792 54.6104 31.0006C48.4973 28.4224 41.6309 29.5055 36.5795 33.2475L24.7666 20.3065C24.2622 19.7564 23.4801 19.5369 22.7369 19.7365C21.9971 19.9375 21.4259 20.526 21.2595 21.2567L19.6548 28.3811L12.0617 30.8536C11.5122 31.0333 11.0621 31.4315 10.8223 31.9479C10.5823 32.4634 10.5771 33.0483 10.8101 33.5568L13.9952 40.575L9.54503 46.5004C9.08963 47.1093 9.01833 47.9078 9.36053 48.566C9.70303 49.2253 10.4004 49.6277 11.1648 49.6129L26.9731 49.2876C27.0585 47.0739 27.5745 44.8307 28.5766 42.6709C29.6526 40.3523 31.1789 38.3673 33.0038 36.7598C32.2086 37.7935 31.5139 38.9199 30.9454 40.1412C26.8486 48.9718 30.7989 59.1989 39.7676 62.9815C45.7188 65.4904 52.381 64.5332 57.3897 61.0268L69.3853 74.1673C69.8884 74.7177 70.6708 74.9385 71.4131 74.7366C72.153 74.5355 72.7259 73.9477 72.8883 73.2173L74.498 66.0922L82.0872 63.6201C82.6379 63.44 83.0882 63.0417 83.3283 62.5263C83.5673 62.0115 83.5734 61.426 83.3433 60.9176L80.1554 53.8993L84.6051 47.9728C85.0607 47.365 85.1328 46.565 84.7913 45.9079C84.4468 45.2506 83.751 44.845 82.984 44.8608Z" fill="#987CC2"/>
</g>
<defs>
<filter id="filter0_i_74_2" x="9.146" y="19.664" width="75.8589" height="55.8424" filterUnits="userSpaceOnUse" color-interpolation-filters="sRGB">
<feFlood flood-opacity="0" result="BackgroundImageFix"/>
<feBlend mode="normal" in="SourceGraphic" in2="BackgroundImageFix" result="shape"/>
<feColorMatrix in="SourceAlpha" type="matrix" values="0 0 0 0 0 0 0 0 0 0 0 0 0 0 0 0 0 0 127 0" result="hardAlpha"/>
<feOffset dy="1.74032"/>
<feGaussianBlur stdDeviation="0.348064"/>
<feComposite in2="hardAlpha" operator="arithmetic" k2="-1" k3="1"/>
<feColorMatrix type="matrix" values="0 0 0 0 0 0 0 0 0 0 0 0 0 0 0 0 0 0 0.25 0"/>
<feBlend mode="normal" in2="shape" result="effect1_innerShadow_74_2"/>
</filter>
</defs>
</svg>
